<?xml version="1.0" encoding="UTF-8" standalone="no"?>
<!DOCTYPE svg PUBLIC "-//W3C//DTD SVG 1.1//EN"
 "http://www.w3.org/Graphics/SVG/1.1/DTD/svg11.dtd">
<!-- Generated by graphviz version 2.43.0 (0)
 -->
<!-- Title: %3 Pages: 1 -->
<svg width="324pt" height="224pt"
 viewBox="0.00 0.00 324.00 224.00" xmlns="http://www.w3.org/2000/svg" xmlns:xlink="http://www.w3.org/1999/xlink">
<g id="graph0" class="graph" transform="scale(1 1) rotate(0) translate(4 220)">
<title>%3</title>
<polygon fill="white" stroke="transparent" points="-4,4 -4,-220 320,-220 320,4 -4,4"/>
<!-- Sheet1!A1 -->
<g id="node1" class="node">
<title>Sheet1!A1</title>
<polygon fill="none" stroke="black" points="316,-216 146,-216 146,-163 316,-163 316,-216"/>
<text text-anchor="middle" x="231" y="-200.8" font-family="Times,serif" font-size="14.00">Cell: A1</text>
<text text-anchor="middle" x="231" y="-185.8" font-family="Times,serif" font-size="14.00">Formula: &#39;= C1 + D1&#39;</text>
<text text-anchor="middle" x="231" y="-170.8" font-family="Times,serif" font-size="14.00">Value: 8</text>
</g>
<!-- Sheet1!C1 -->
<g id="node3" class="node">
<title>Sheet1!C1</title>
<polygon fill="none" stroke="black" points="203,-127 51,-127 51,-74 203,-74 203,-127"/>
<text text-anchor="middle" x="127" y="-111.8" font-family="Times,serif" font-size="14.00">Cell: C1</text>
<text text-anchor="middle" x="127" y="-96.8" font-family="Times,serif" font-size="14.00">Formula: &#39;= D1 &#45; 2&#39;</text>
<text text-anchor="middle" x="127" y="-81.8" font-family="Times,serif" font-size="14.00">Value: 3</text>
</g>
<!-- Sheet1!A1&#45;&gt;Sheet1!C1 -->
<g id="edge1" class="edge">
<title>Sheet1!A1&#45;&gt;Sheet1!C1</title>
<path fill="none" stroke="black" d="M200.36,-162.87C189.45,-153.75 177.03,-143.35 165.55,-133.75"/>
<polygon fill="black" stroke="black" points="167.7,-130.98 157.78,-127.25 163.21,-136.35 167.7,-130.98"/>
</g>
<!-- Sheet1!D1 -->
<g id="node4" class="node">
<title>Sheet1!D1</title>
<polygon fill="none" stroke="black" points="216,-38 142,-38 142,0 216,0 216,-38"/>
<text text-anchor="middle" x="179" y="-22.8" font-family="Times,serif" font-size="14.00">Cell: D1</text>
<text text-anchor="middle" x="179" y="-7.8" font-family="Times,serif" font-size="14.00">Value: 5</text>
</g>
<!-- Sheet1!A1&#45;&gt;Sheet1!D1 -->
<g id="edge2" class="edge">
<title>Sheet1!A1&#45;&gt;Sheet1!D1</title>
<path fill="none" stroke="black" d="M229.55,-162.76C227.57,-139.07 222.9,-103.27 212,-74 208.51,-64.62 203.33,-55.09 198.1,-46.69"/>
<polygon fill="black" stroke="black" points="200.88,-44.54 192.48,-38.08 195.01,-48.37 200.88,-44.54"/>
</g>
<!-- Sheet1!B1 -->
<g id="node2" class="node">
<title>Sheet1!B1</title>
<polygon fill="none" stroke="black" points="128,-216 0,-216 0,-163 128,-163 128,-216"/>
<text text-anchor="middle" x="64" y="-200.8" font-family="Times,serif" font-size="14.00">Cell: B1</text>
<text text-anchor="middle" x="64" y="-185.8" font-family="Times,serif" font-size="14.00">Formula: &#39;= C1&#39;</text>
<text text-anchor="middle" x="64" y="-170.8" font-family="Times,serif" font-size="14.00">Value: 3</text>
</g>
<!-- Sheet1!B1&#45;&gt;Sheet1!C1 -->
<g id="edge4" class="edge">
<title>Sheet1!B1&#45;&gt;Sheet1!C1</title>
<path fill="none" stroke="black" d="M82.56,-162.87C88.79,-154.27 95.83,-144.55 102.44,-135.42"/>
<polygon fill="black" stroke="black" points="105.32,-137.4 108.35,-127.25 99.65,-133.3 105.32,-137.4"/>
</g>
<!-- Sheet1!C1&#45;&gt;Sheet1!D1 -->
<g id="edge3" class="edge">
<title>Sheet1!C1&#45;&gt;Sheet1!D1</title>
<path fill="none" stroke="black" d="M143.74,-73.91C149.44,-65.19 155.82,-55.43 161.58,-46.64"/>
<polygon fill="black" stroke="black" points="164.53,-48.52 167.07,-38.24 158.67,-44.69 164.53,-48.52"/>
</g>
</g>
</svg>
